<svg width="37" height="38" viewBox="0 0 37 38" fill="none" xmlns="http://www.w3.org/2000/svg">
<path fill-rule="evenodd" clip-rule="evenodd" d="M32.6129 29.2513C31.9581 30.0442 31.7891 31.0505 31.2504 31.963C29.7718 34.4625 26.3501 34.8544 24.073 33.058C21.0877 30.6947 20.6531 27.2381 20.0379 23.6722C19.9454 23.1156 19.2969 23.1682 19.2423 23.6081C18.5703 29.7719 21.0854 34.4654 22.8675 37.3327H19.6189C19.5522 37.2537 18.3346 35.7245 17.7545 32.2977C17.1267 28.5928 17.7551 25.9103 17.5958 23.5549C17.6303 22.9445 16.9135 23.0258 16.7899 23.6722C16.0586 27.4194 16.0074 30.7084 12.7025 33.1621C10.3932 34.8692 6.99733 34.3658 5.74121 32.0654C5.15714 30.9979 4.8283 29.9321 4.05739 29.0951C3.30142 28.2753 2.34826 27.9801 1.64748 27.0607C-0.501423 24.2455 1.15079 20.9348 4.00507 19.2402C6.99158 17.4667 12.4403 18.5617 13.751 18.0926C14.2771 18.0846 14.342 17.2962 13.5406 17.207C8.93008 16.6847 4.31263 17.4307 1.96137 12.9826C1.43765 11.9924 0.832877 9.52663 1.96137 8.02946C3.21921 6.36066 4.65296 6.00425 5.73432 5.05743C6.36036 4.50994 6.45177 3.86118 6.99158 3.02421C8.12122 1.2736 10.0523 0.320492 12.0218 0.7816C17.3659 2.03277 17.785 7.45565 17.9419 12.3573C17.9988 14.1371 19.2003 14.1823 19.0946 12.0444C19.5148 7.92534 18.361 3.96187 23.6528 1.14717C25.662 0.0773523 28.6554 0.895447 29.7833 2.91894C30.2674 3.79139 30.6336 4.63179 31.1987 5.10949C32.2818 6.0237 33.7132 6.24395 34.7618 7.76916C36.1231 9.74917 35.6586 11.8922 34.6037 13.557C32.1938 17.3632 26.9015 16.842 23.1297 17.207C22.2386 17.4152 22.2334 18.0148 22.7669 18.0903C26.7974 18.6664 29.2079 17.1875 32.8222 19.3449C35.8696 21.1647 37.4862 24.924 34.8664 27.4784C34.1202 28.2049 33.2671 28.4578 32.6129 29.2513ZM22.2133 9.91108L23.2441 10.9271L25.2406 8.93737L27.1239 10.8075L25.1199 12.8007L26.1357 13.8179L30.7865 9.19596L29.7644 8.17477L27.9834 9.95112L26.0978 8.07923L27.8851 6.30803L26.8647 5.28798L22.2133 9.91108ZM14.4702 9.93854L9.82 5.31316L8.79958 6.32748L10.5834 8.10498L8.70185 9.97629L6.9203 8.20109L5.89471 9.21999L10.5438 13.8419L11.563 12.8265L9.56073 10.8316L11.4475 8.96197L13.4498 10.9523L14.4702 9.93854ZM13.4239 25.3839L12.507 24.2741L10.3144 26.0619L8.62425 24.012L10.822 22.2254L9.90738 21.1144L4.82025 25.2529L5.73834 26.3708L7.68661 24.7787L9.37619 26.8256L7.42217 28.416L8.3368 29.5299L13.4239 25.3839ZM31.9777 25.3473L26.9434 21.151L26.0207 22.2483L28.1892 24.0601L26.4812 26.087L24.3099 24.2775L23.3832 25.3805L28.418 29.5814L29.3441 28.4807L27.4085 26.8679L29.1193 24.8399L31.0521 26.4515L31.9777 25.3473Z" fill="#349966"/>
<path d="M31.4039 32.9395L32.2277 33.5865L32.1409 33.6952L31.5557 33.2375L31.4039 33.428L31.3223 33.3634C31.4183 33.2244 31.4482 33.1574 31.3401 33.0201L31.4039 32.9395Z" fill="#349966"/>
<path fill-rule="evenodd" clip-rule="evenodd" d="M32.7325 32.9866C32.6968 33.033 32.6169 33.1102 32.5135 33.1354C32.3789 33.1663 32.2904 33.0965 32.2502 33.065C32.1496 32.986 32.1266 32.8831 32.1593 32.7686C32.0783 32.8173 31.9897 32.8133 31.9115 32.7532C31.8253 32.6868 31.7276 32.5238 31.8822 32.3276C32.0277 32.1451 32.199 32.1651 32.295 32.24C32.414 32.3333 32.3962 32.4305 32.3853 32.482C32.5204 32.4082 32.6296 32.4569 32.6934 32.5049C32.8245 32.609 32.8866 32.7938 32.7325 32.9866ZM32.2145 32.3493C32.1639 32.3098 32.065 32.2858 31.9702 32.4065C31.8828 32.5158 31.9386 32.6022 31.9909 32.6439C32.0696 32.7063 32.172 32.6748 32.2312 32.5999C32.3013 32.5106 32.2893 32.4082 32.2145 32.3493ZM32.6175 32.6245C32.5054 32.5369 32.395 32.5747 32.322 32.6691C32.2289 32.7841 32.264 32.8979 32.3398 32.9569C32.4054 33.0084 32.5301 33.0535 32.6434 32.9111C32.7014 32.8367 32.7463 32.7263 32.6175 32.6245Z" fill="#349966"/>
<path d="M33.6316 31.8659C33.4522 32.093 33.2297 32.0758 33.0734 31.9511L32.5117 31.5106L32.602 31.3968L33.1314 31.8144C33.3137 31.9563 33.4522 31.8859 33.5327 31.7846C33.6155 31.6799 33.6603 31.5261 33.4775 31.3825L32.9452 30.9648L33.0349 30.8516L33.5816 31.2795C33.7535 31.4156 33.8138 31.6365 33.6316 31.8659Z" fill="#349966"/>
<path d="M34.3334 30.5014C34.5334 30.6582 34.442 30.8853 34.3282 31.0301C34.2052 31.1845 34.1098 31.2091 34.0465 31.2183C33.9258 31.24 33.8442 31.1988 33.7654 31.137L33.8499 31.0312C34.0022 31.1496 34.146 31.0621 34.2299 30.9545C34.2949 30.8721 34.3834 30.7182 34.2621 30.6227C34.1741 30.5535 34.1138 30.5741 33.9723 30.6862L33.7959 30.8264C33.7395 30.8699 33.6027 30.9643 33.4561 30.8487C33.3244 30.7457 33.2641 30.5592 33.4245 30.3561C33.6567 30.0626 33.8562 30.1713 33.9517 30.2394L33.8671 30.3458C33.732 30.2502 33.6061 30.3246 33.5326 30.419C33.4756 30.4905 33.4009 30.6261 33.528 30.7268C33.5998 30.7829 33.6631 30.7509 33.7131 30.7119L33.958 30.5151C34.0695 30.4276 34.2006 30.3973 34.3334 30.5014Z" fill="#349966"/>
<path d="M34.9394 29.5518C35.2199 29.8475 35.0314 30.1147 34.9814 30.1788C34.8302 30.3687 34.5577 30.4585 34.234 30.2045C33.9742 29.9997 33.9121 29.7131 34.1047 29.4688C34.276 29.2537 34.5014 29.2468 34.6537 29.3407L34.5669 29.4505C34.3944 29.3658 34.2708 29.4671 34.2053 29.5472C34.0852 29.6994 34.1012 29.9099 34.3231 30.085C34.5215 30.2394 34.7301 30.2892 34.894 30.0815C34.9526 30.0077 35.0176 29.8533 34.8526 29.6616L34.9394 29.5518Z" fill="#349966"/>
<path d="M35.39 28.2188C35.4113 28.3681 35.5188 28.7692 35.8395 29.1176L35.751 29.2309C35.5469 29.0266 35.3687 28.6439 35.3101 28.3424L34.9514 28.7943L34.8496 28.716L35.2997 28.1484L35.39 28.2188Z" fill="#349966"/>
<path fill-rule="evenodd" clip-rule="evenodd" d="M36.4312 28.419C36.2432 28.6536 35.9551 28.5025 35.785 28.3681C35.6131 28.2336 35.3981 27.9894 35.5849 27.7537C35.7706 27.5174 36.0581 27.6713 36.2305 27.8057C36.4018 27.9407 36.6174 28.1833 36.4312 28.419ZM36.1449 27.915C35.9368 27.7525 35.77 27.709 35.6763 27.8269C35.5843 27.9447 35.6654 28.0952 35.8712 28.2582C36.0787 28.4196 36.2449 28.4636 36.3386 28.3458C36.4317 28.2285 36.3495 28.0769 36.1449 27.915Z" fill="#349966"/>
<path d="M36.8957 27.7861L36.806 27.8988C36.603 27.6946 36.4254 27.3124 36.365 27.0103L36.0069 27.4617L35.9062 27.3834L36.3564 26.8164L36.4461 26.8868C36.4674 27.0355 36.5743 27.4371 36.8957 27.7861Z" fill="#349966"/>
</svg>